<?xml version="1.0" ?><svg style="enable-background:new 0 0 24 24;" version="1.1" viewBox="0 0 24 24" xml:space="preserve" xmlns="http://www.w3.org/2000/svg"><g id="info"/><g id="icons"><g id="sun"><circle cx="12" cy="12" r="4" style="fill:#ffffff;"/><path d="M12,5c0.6,0,1-0.4,1-1V2c0-0.6-0.4-1-1-1s-1,0.4-1,1v2C11,4.6,11.4,5,12,5z" style="fill:#ffffff;"/><path d="M12,19c-0.6,0-1,0.4-1,1v2c0,0.6,0.4,1,1,1s1-0.4,1-1v-2C13,19.4,12.6,19,12,19z" style="fill:#ffffff;"/><path d="M5,12c0-0.6-0.4-1-1-1H2c-0.6,0-1,0.4-1,1s0.4,1,1,1h2C4.6,13,5,12.6,5,12z" style="fill:#ffffff;"/><path d="M19,11h-2c-0.6,0-1,0.4-1,1s0.4,1,1,1h2c0.6,0,1-0.4,1-1S19.6,11,19,11z" style="fill:#ffffff;"/></g></g></svg>